<?xml version="1.0" encoding="iso-8859-1"?>
<!-- Uploaded to: SVG Repo, www.svgrepo.com, Generator: SVG Repo Mixer Tools -->
<svg height="800px" width="800px" version="1.1" id="Layer_1" xmlns="http://www.w3.org/2000/svg" xmlns:xlink="http://www.w3.org/1999/xlink" 
	 viewBox="0 0 512 512" xml:space="preserve">
<path style="fill:#F4BA48;" d="M0,468.598v-98.869c0-7.062,5.297-12.359,12.359-12.359h481.986c9.71,0,17.655,7.945,17.655,17.655
	v88.276c0,9.71-7.945,17.655-17.655,17.655H12.359C5.297,480.956,0,475.66,0,468.598"/>
<g>
	<path style="fill:#BD9139;" d="M61.793,445.646c14.124,0,26.483-11.476,26.483-26.483c0-14.124-11.476-26.483-26.483-26.483
		S35.31,404.156,35.31,419.163C35.31,433.287,47.669,445.646,61.793,445.646"/>
	<path style="fill:#BD9139;" d="M194.207,357.37v35.31c0,5.297,3.531,8.828,8.828,8.828s8.828-3.531,8.828-8.828v-35.31H194.207z"/>
	<path style="fill:#BD9139;" d="M158.897,357.37v52.966c0,5.297,3.531,8.828,8.828,8.828s8.828-3.531,8.828-8.828V357.37H158.897z"
		/>
	<path style="fill:#BD9139;" d="M229.517,357.37v52.966c0,5.297,3.531,8.828,8.828,8.828s8.828-3.531,8.828-8.828V357.37H229.517z"
		/>
	<path style="fill:#BD9139;" d="M123.586,357.37v35.31c0,5.297,3.531,8.828,8.828,8.828c5.297,0,8.828-3.531,8.828-8.828v-35.31
		H123.586z"/>
	<path style="fill:#BD9139;" d="M8.828,136.68l413.131,357.517c7.945,7.062,21.186,6.179,27.366-2.648l59.145-70.621
		c4.414-5.297,3.531-12.359-1.766-16.772L188.91,136.68H8.828z"/>
</g>
<path style="fill:#F4BA48;" d="M0,124.322V25.453c0-7.062,5.297-12.359,12.359-12.359h481.986c9.71,0,17.655,7.945,17.655,17.655
	v88.276c0,9.71-7.945,17.655-17.655,17.655H12.359C5.297,136.68,0,131.384,0,124.322"/>
<path style="fill:#BD9139;" d="M61.793,101.37c14.124,0,26.483-11.476,26.483-26.483S76.8,48.405,61.793,48.405
	S35.31,60.763,35.31,74.887S47.669,101.37,61.793,101.37"/>
<path style="fill:#F4BA48;" d="M446.676,399.743c-11.476-9.71-27.366-7.945-37.076,3.531c-9.71,11.476-7.945,27.366,3.531,37.076
	c11.476,9.71,27.366,7.945,37.076-3.531C459.034,425.343,458.152,408.57,446.676,399.743"/>
<g>
	<path style="fill:#BD9139;" d="M441.379,13.094V66.06c0,5.297,3.531,8.828,8.828,8.828c5.297,0,8.828-3.531,8.828-8.828V13.094
		H441.379z"/>
	<path style="fill:#BD9139;" d="M406.069,13.094v35.31c0,5.297,3.531,8.828,8.828,8.828s8.828-3.531,8.828-8.828v-35.31H406.069z"/>
	<path style="fill:#BD9139;" d="M370.759,13.094V66.06c0,5.297,3.531,8.828,8.828,8.828s8.828-3.531,8.828-8.828V13.094H370.759z"/>
	<path style="fill:#BD9139;" d="M335.448,13.094v35.31c0,5.297,3.531,8.828,8.828,8.828s8.828-3.531,8.828-8.828v-35.31H335.448z"/>
	<path style="fill:#BD9139;" d="M300.138,13.094V66.06c0,5.297,3.531,8.828,8.828,8.828s8.828-3.531,8.828-8.828V13.094H300.138z"/>
	<path style="fill:#BD9139;" d="M264.828,13.094v35.31c0,5.297,3.531,8.828,8.828,8.828c5.297,0,8.828-3.531,8.828-8.828v-35.31
		H264.828z"/>
	<path style="fill:#BD9139;" d="M229.517,13.094V66.06c0,5.297,3.531,8.828,8.828,8.828s8.828-3.531,8.828-8.828V13.094H229.517z"/>
	<path style="fill:#BD9139;" d="M194.207,13.094v35.31c0,5.297,3.531,8.828,8.828,8.828s8.828-3.531,8.828-8.828v-35.31H194.207z"/>
	<path style="fill:#BD9139;" d="M158.897,13.094V66.06c0,5.297,3.531,8.828,8.828,8.828s8.828-3.531,8.828-8.828V13.094H158.897z"/>
	<path style="fill:#BD9139;" d="M123.586,13.094v35.31c0,5.297,3.531,8.828,8.828,8.828c5.297,0,8.828-3.531,8.828-8.828v-35.31
		H123.586z"/>
</g>
<g>
	<path style="fill:#F4BA48;" d="M90.041,207.301L90.041,207.301l18.538-22.952c2.648-3.531,2.648-9.71-1.766-12.359
		c-3.531-2.648-9.71-2.648-12.359,0.883L76.8,194.943L90.041,207.301z"/>
	<path style="fill:#F4BA48;" d="M116.524,229.37L116.524,229.37l30.014-36.193c3.531-3.531,2.648-9.71-0.883-12.359
		c-3.531-3.531-9.71-2.648-12.359,0.883l-30.014,36.193L116.524,229.37z"/>
	<path style="fill:#F4BA48;" d="M143.007,253.205L143.007,253.205l19.421-22.952c3.531-3.531,2.648-9.71-0.883-12.359
		c-3.531-3.531-9.71-2.648-12.359,0.883l-19.421,22.952L143.007,253.205z"/>
	<path style="fill:#F4BA48;" d="M187.145,227.605l-30.897,37.076l13.241,11.476l0,0l30.897-37.076
		c3.531-3.531,2.648-9.71-0.883-12.359C195.972,223.191,190.676,224.074,187.145,227.605"/>
	<path style="fill:#F4BA48;" d="M203.034,263.798l-19.421,23.834l13.241,11.476l0,0l19.421-23.835
		c3.531-3.531,2.648-9.71-0.883-12.359C211.862,259.384,206.566,260.267,203.034,263.798"/>
	<path style="fill:#F4BA48;" d="M241.876,273.508l-31.779,37.076l13.241,11.476l0,0l31.779-37.959
		c3.531-3.531,2.648-9.71-0.883-12.359C250.703,269.094,244.524,269.094,241.876,273.508"/>
	<path style="fill:#F4BA48;" d="M256.883,309.701l-20.303,24.717l13.241,11.476l0,0l20.303-24.717
		c3.531-3.531,2.648-9.71-0.883-12.359C265.71,305.287,260.414,305.287,256.883,309.701"/>
	<path style="fill:#F4BA48;" d="M295.724,318.529l-31.779,37.959l13.241,11.476l0,0l31.779-37.959
		c3.531-3.531,2.648-9.71-0.883-12.359C304.552,314.115,298.372,314.998,295.724,318.529"/>
	<path style="fill:#F4BA48;" d="M311.614,354.722l-21.186,24.717l13.241,11.476l0,0l21.186-25.6
		c3.531-3.531,2.648-9.71-0.883-12.359C320.441,350.308,314.262,351.191,311.614,354.722"/>
	<path style="fill:#F4BA48;" d="M349.572,363.549l-32.662,38.841l13.241,11.476l0,0l32.662-38.841
		c3.531-3.531,2.648-9.71-0.883-12.359C358.4,360.018,353.103,360.018,349.572,363.549"/>
</g>
</svg>